<svg xmlns="http://www.w3.org/2000/svg" width="116" height="38" viewBox="0 0 116 38" fill="none" class="flex-shrink-0"><path d="M100.883 37.1617L106.218 21.0935L101.235 6.14209H105.433L108.679 15.6548L111.492 6.14209H115.752L110.644 21.4244L116 37.1617H111.575L108.245 27.132L105.226 37.1617H100.883Z" fill="currentColor"></path><path d="M92.3929 37.5336C90.8764 37.5336 89.6425 37.2785 88.6912 36.7684C87.7537 36.2583 87.0299 35.5345 86.5198 34.5971C86.0235 33.6458 85.6789 32.5084 85.4858 31.1849C85.3066 29.8614 85.217 28.3931 85.217 26.7801V15.551C85.217 14.1035 85.3411 12.78 85.5892 11.5805C85.8374 10.3811 86.2372 9.34712 86.7887 8.47857C87.3539 7.61003 88.1122 6.94138 89.0634 6.47264C90.0147 6.0039 91.1935 5.76953 92.5997 5.76953C94.0335 5.76953 95.2053 6.01079 96.1152 6.49332C97.0251 6.96206 97.7213 7.6376 98.2039 8.51993C98.7002 9.38848 99.0449 10.4363 99.2379 11.6633C99.4309 12.8765 99.5274 14.2275 99.5274 15.7165V21.8997H90.0147V28.0416C90.0147 29.8063 90.1388 31.178 90.3869 32.1569C90.6489 33.1357 91.3451 33.6251 92.4756 33.6251C93.2201 33.6251 93.7508 33.3976 94.0679 32.9427C94.3988 32.4739 94.5987 31.826 94.6676 30.9988C94.7366 30.1578 94.771 29.1859 94.771 28.083V25.4773H99.4653V26.9456C99.4653 28.5724 99.3826 30.0406 99.2172 31.3503C99.0517 32.6601 98.7278 33.7768 98.2452 34.7005C97.7765 35.6104 97.0734 36.3135 96.1359 36.8098C95.1984 37.2923 93.9507 37.5336 92.3929 37.5336ZM89.994 18.8805H94.771V14.91C94.771 13.7657 94.7228 12.8006 94.6263 12.0148C94.5436 11.2152 94.3506 10.6155 94.0473 10.2157C93.7439 9.81586 93.2545 9.61596 92.579 9.61596C91.8069 9.61596 91.2348 9.85033 90.8626 10.3191C90.4903 10.7878 90.2491 11.4289 90.1388 12.2423C90.0423 13.0557 89.994 13.9932 89.994 15.0547V18.8805Z" fill="currentColor"></path><path d="M64.2982 37.1615V10.8155H61.7339V7.3413H64.2982V5.79032C64.2982 4.49439 64.5326 3.41905 65.0013 2.56429C65.47 1.70952 66.2076 1.06845 67.214 0.641071C68.2204 0.21369 69.5439 0 71.1845 0C71.7084 0 72.2599 0.0206797 72.8389 0.0620392C73.4179 0.103399 74.0728 0.172331 74.8035 0.268836C75.548 0.365342 76.4234 0.503207 77.4298 0.682431C78.45 0.861655 79.6701 1.09603 81.0901 1.38554V37.1615H76.3338V3.86711C75.548 3.68788 74.8311 3.56381 74.1831 3.49487C73.5351 3.41215 72.9561 3.3708 72.446 3.3708C71.5637 3.3708 70.8743 3.48109 70.378 3.70167C69.8955 3.90847 69.5508 4.19798 69.344 4.57022C69.151 4.92867 69.0545 5.32848 69.0545 5.76964V7.3413H72.4874V10.8155H69.0545V37.1615H64.2982Z" fill="currentColor"></path><path d="M49.3559 37.5753C48.3081 37.5753 47.3844 37.3271 46.5848 36.8308C45.7852 36.3345 45.1579 35.5624 44.7029 34.5147C44.2618 33.4669 44.0412 32.1158 44.0412 30.4614V6.14209H48.7975V29.8411C48.7975 31.0267 48.9836 31.9435 49.3559 32.5915C49.7281 33.2256 50.3761 33.5427 51.2998 33.5427C52.2924 33.5427 53.0024 33.1774 53.4298 32.4467C53.8709 31.716 54.0915 30.8337 54.0915 29.7997V6.14209H58.8479V37.1617H54.0915V33.977C53.7469 34.9696 53.1954 35.8175 52.4372 36.5206C51.6789 37.2237 50.6518 37.5753 49.3559 37.5753Z" fill="currentColor"></path><path d="M34.8685 37.1614V0.413574H39.6042V37.1614H34.8685Z" fill="currentColor"></path><path d="M24.0621 37.5336C22.5456 37.5336 21.3117 37.2785 20.3604 36.7684C19.4229 36.2583 18.6991 35.5345 18.189 34.5971C17.6927 33.6458 17.348 32.5084 17.155 31.1849C16.9758 29.8614 16.8862 28.3931 16.8862 26.7801V15.551C16.8862 14.1035 17.0103 12.78 17.2584 11.5805C17.5066 10.3811 17.9064 9.34712 18.4579 8.47857C19.0231 7.61003 19.7814 6.94138 20.7326 6.47264C21.6839 6.0039 22.8626 5.76953 24.2689 5.76953C25.7027 5.76953 26.8745 6.01079 27.7844 6.49332C28.6943 6.96206 29.3905 7.6376 29.8731 8.51993C30.3694 9.38848 30.714 10.4363 30.9071 11.6633C31.1001 12.8765 31.1966 14.2275 31.1966 15.7165V21.8997H21.6839V28.0416C21.6839 29.8063 21.808 31.178 22.0561 32.1569C22.3181 33.1357 23.0143 33.6251 24.1448 33.6251C24.8893 33.6251 25.42 33.3976 25.7371 32.9427C26.068 32.4739 26.2679 31.826 26.3368 30.9988C26.4058 30.1578 26.4402 29.1859 26.4402 28.083V25.4773H31.1345V26.9456C31.1345 28.5724 31.0518 30.0406 30.8864 31.3503C30.7209 32.6601 30.397 33.7768 29.9144 34.7005C29.4457 35.6104 28.7426 36.3135 27.8051 36.8098C26.8676 37.2923 25.6199 37.5336 24.0621 37.5336ZM21.6632 18.8805H26.4402V14.91C26.4402 13.7657 26.392 12.8006 26.2955 12.0148C26.2128 11.2152 26.0197 10.6155 25.7164 10.2157C25.4131 9.81586 24.9237 9.61596 24.2482 9.61596C23.4761 9.61596 22.904 9.85033 22.5318 10.3191C22.1595 10.7878 21.9183 11.4289 21.808 12.2423C21.7115 13.0557 21.6632 13.9932 21.6632 15.0547V18.8805Z" fill="currentColor"></path><path d="M4.4875 37.1617L0 6.14209H4.40478L6.65887 23.2856L7.42402 30.6682H7.69286L8.35461 23.2649L10.3192 6.14209H14.7033L10.1951 37.1617H4.4875Z" fill="currentColor"></path></svg>